<svg width="96" height="96" xmlns="http://www.w3.org/2000/svg" viewBox="0 0 48 48"><g stroke="#4f9a3a" stroke-width="3.2" fill="none" stroke-linecap="round"><path d="M24 38C23 30 18 24 13 19"/><path d="M24 38C24 30 24 22 24 14"/><path d="M24 38C25 30 30 24 35 19"/></g><g transform="rotate(-26 13 19)" stroke="#357026" stroke-width="1.4"><ellipse cx="7.6" cy="17.5" rx="6.4" ry="4" transform="rotate(-22 7.6 17.5)" fill="#7cc35a"/><ellipse cx="18.4" cy="17.5" rx="6.4" ry="4" transform="rotate(22 18.4 17.5)" fill="#94d36f"/></g><g transform="rotate(0 24 13)" stroke="#357026" stroke-width="1.4"><ellipse cx="18.6" cy="11.5" rx="6.4" ry="4" transform="rotate(-22 18.6 11.5)" fill="#7cc35a"/><ellipse cx="29.4" cy="11.5" rx="6.4" ry="4" transform="rotate(22 29.4 11.5)" fill="#94d36f"/></g><g transform="rotate(26 35 19)" stroke="#357026" stroke-width="1.4"><ellipse cx="29.6" cy="17.5" rx="6.4" ry="4" transform="rotate(-22 29.6 17.5)" fill="#7cc35a"/><ellipse cx="40.4" cy="17.5" rx="6.4" ry="4" transform="rotate(22 40.4 17.5)" fill="#94d36f"/></g><rect x="18" y="32" width="12" height="6" rx="2.4" fill="#f1c75a" stroke="#b8862f" stroke-width="1.6"/><path d="M21 38l-1 6M24 38v6M27 38l1 6" stroke="#e9d3a0" stroke-width="1.6" stroke-linecap="round"/></svg>
