<svg width="160" height="180" xmlns="http://www.w3.org/2000/svg" viewBox="0 0 80 90"><ellipse cx="40" cy="84" rx="17" ry="6.5" fill="#7a4d2c"/><ellipse cx="40" cy="81.5" rx="12.5" ry="4.5" fill="#9b6539"/><path d="M40 82V18" stroke="#a8814f" stroke-width="2.6" stroke-linecap="round"/><path d="M40 80C34 66 46 52 40 30" stroke="#4f9a3a" stroke-width="3" fill="none" stroke-linecap="round"/><ellipse cx="28" cy="62" rx="9" ry="5.5" fill="#5fa845" transform="rotate(-25 28 62)"/><ellipse cx="52" cy="56" rx="9" ry="5.5" fill="#7cc35a" transform="rotate(25 52 56)"/><ellipse cx="30" cy="44" rx="9" ry="5.5" fill="#5fa845" transform="rotate(-25 30 44)"/><ellipse cx="50" cy="38" rx="9" ry="5.5" fill="#7cc35a" transform="rotate(25 50 38)"/><ellipse cx="40" cy="26" rx="9" ry="5.5" fill="#5fa845" transform="rotate(-25 40 26)"/><circle cx="33" cy="54" r="7" fill="#ea4b3c" stroke="#b02e22" stroke-width="1.4"/><ellipse cx="30.6" cy="51.4" rx="2.2" ry="1.4" fill="#ffb1a3"/><circle cx="48" cy="46" r="7" fill="#ea4b3c" stroke="#b02e22" stroke-width="1.4"/><ellipse cx="45.6" cy="43.4" rx="2.2" ry="1.4" fill="#ffb1a3"/><circle cx="36" cy="34" r="7" fill="#ea4b3c" stroke="#b02e22" stroke-width="1.4"/><ellipse cx="33.6" cy="31.4" rx="2.2" ry="1.4" fill="#ffb1a3"/></svg>
