<svg xmlns="http://www.w3.org/2000/svg" viewBox="0 0 10 12" width="10" height="12" shape-rendering="crispEdges"><rect x="3" y="0" width="4" height="1" fill="#1d1116"/><rect x="2" y="1" width="1" height="1" fill="#1d1116"/><rect x="3" y="1" width="1" height="1" fill="#c2c3c7"/><rect x="4" y="1" width="2" height="1" fill="#1d1116"/><rect x="6" y="1" width="1" height="1" fill="#c2c3c7"/><rect x="7" y="1" width="1" height="1" fill="#1d1116"/><rect x="1" y="2" width="1" height="1" fill="#1d1116"/><rect x="2" y="2" width="1" height="1" fill="#c2c3c7"/><rect x="3" y="2" width="1" height="1" fill="#1d1116"/><rect x="6" y="2" width="1" height="1" fill="#1d1116"/><rect x="7" y="2" width="1" height="1" fill="#c2c3c7"/><rect x="8" y="2" width="1" height="1" fill="#1d1116"/><rect x="1" y="3" width="1" height="1" fill="#1d1116"/><rect x="2" y="3" width="1" height="1" fill="#c2c3c7"/><rect x="3" y="3" width="1" height="1" fill="#1d1116"/><rect x="6" y="3" width="1" height="1" fill="#1d1116"/><rect x="7" y="3" width="1" height="1" fill="#c2c3c7"/><rect x="8" y="3" width="1" height="1" fill="#1d1116"/><rect x="0" y="4" width="10" height="1" fill="#1d1116"/><rect x="0" y="5" width="1" height="1" fill="#1d1116"/><rect x="1" y="5" width="8" height="1" fill="#ffec27"/><rect x="9" y="5" width="1" height="1" fill="#1d1116"/><rect x="0" y="6" width="1" height="1" fill="#1d1116"/><rect x="1" y="6" width="3" height="1" fill="#ffec27"/><rect x="4" y="6" width="2" height="1" fill="#1d1116"/><rect x="6" y="6" width="3" height="1" fill="#ffec27"/><rect x="9" y="6" width="1" height="1" fill="#1d1116"/><rect x="0" y="7" width="1" height="1" fill="#1d1116"/><rect x="1" y="7" width="3" height="1" fill="#ffec27"/><rect x="4" y="7" width="2" height="1" fill="#1d1116"/><rect x="6" y="7" width="3" height="1" fill="#ffec27"/><rect x="9" y="7" width="1" height="1" fill="#1d1116"/><rect x="0" y="8" width="1" height="1" fill="#1d1116"/><rect x="1" y="8" width="4" height="1" fill="#ffec27"/><rect x="5" y="8" width="1" height="1" fill="#1d1116"/><rect x="6" y="8" width="3" height="1" fill="#ffec27"/><rect x="9" y="8" width="1" height="1" fill="#1d1116"/><rect x="0" y="9" width="1" height="1" fill="#1d1116"/><rect x="1" y="9" width="4" height="1" fill="#ffec27"/><rect x="5" y="9" width="1" height="1" fill="#1d1116"/><rect x="6" y="9" width="3" height="1" fill="#ffec27"/><rect x="9" y="9" width="1" height="1" fill="#1d1116"/><rect x="0" y="10" width="1" height="1" fill="#1d1116"/><rect x="1" y="10" width="8" height="1" fill="#ffa300"/><rect x="9" y="10" width="1" height="1" fill="#1d1116"/><rect x="0" y="11" width="10" height="1" fill="#1d1116"/></svg>